<svg width="148" height="131" viewBox="0 0 148 131" fill="none" xmlns="http://www.w3.org/2000/svg">
<path d="M53.3878 54.9111C46.4671 54.9111 28.8216 51.7961 23.8282 57.8991C18.3039 64.6511 26.2861 69.0328 31.8317 69.851C37.1526 70.636 43.3037 70.7101 48.479 69.104C52.2261 67.9411 60.0869 60.7052 52.214 65.0489C43.9765 69.5937 29.8795 98.7739 39.0883 106.667C45.7238 112.355 57.3628 106.884 62.992 102.505C67.1285 99.288 70.0434 86.5262 73.8768 89.5929C83.6904 97.4438 102.201 94.2618 110.586 86.0714C112.255 84.4417 118.927 74.3763 112.507 74.1195C103.15 73.7452 116.466 70.7047 120.404 66.3294C127.685 58.2389 128.993 45.6852 118.27 41.0384C115.725 39.9359 93.9389 33.2668 93.9389 40.3981C93.9389 45.4737 97.1674 30.0148 95.4329 25.2448C92.49 17.1518 75.221 24.3274 71.5291 28.0193C65.619 33.9295 69.1437 38.5337 59.7906 36.6631C47.1174 34.1285 32.887 37.5282 27.3498 50.6426C24.6256 57.0945 26.0361 62.4411 32.2586 64.5153" stroke="#44A417" stroke-width="43" stroke-linecap="round"/>
<ellipse cx="74" cy="65.5" rx="40" ry="37.5" fill="#100BEC"/>
</svg>
