<svg width="400" height="225" viewBox="0 0 400 225" fill="none" xmlns="http://www.w3.org/2000/svg">
<path d="M13 41C11.4267 41 10.2667 40.56 9.52 39.68C8.8 38.8 8.44 37.6667 8.44 36.28V23.08H1.56V20.36H6.68C7.37333 20.36 7.85333 20.2267 8.12 19.96C8.41333 19.6667 8.56 19.1733 8.56 18.48V13.08H11.64V20.36H21.04V23.08H11.64V38.28H21.04V41H13ZM87.8644 20.36H91.0644L80.8244 45.52C80.5844 46.1067 80.3177 46.6133 80.0244 47.04C79.731 47.4933 79.3844 47.8533 78.9844 48.12C78.5844 48.4133 78.1044 48.6267 77.5444 48.76C76.9844 48.92 76.3177 49 75.5444 49H72.5044V46.28H77.3044L79.6244 40.6L71.3044 20.36H74.5844L78.0644 29L81.1444 36.84H81.3044L84.3844 29L87.8644 20.36ZM219.913 41.48C218.42 41.48 217.073 41.2267 215.873 40.72C214.7 40.2133 213.686 39.4933 212.833 38.56C212.006 37.6 211.366 36.4667 210.913 35.16C210.46 33.8267 210.233 32.3467 210.233 30.72C210.233 29.0667 210.46 27.5733 210.913 26.24C211.393 24.9067 212.046 23.7733 212.873 22.84C213.7 21.88 214.686 21.1467 215.833 20.64C217.006 20.1333 218.3 19.88 219.713 19.88C221.1 19.88 222.353 20.1333 223.473 20.64C224.62 21.1467 225.593 21.8533 226.393 22.76C227.193 23.64 227.806 24.6933 228.233 25.92C228.66 27.1467 228.873 28.4933 228.873 29.96V31.48H213.593V32.44C213.593 33.3467 213.74 34.1867 214.033 34.96C214.326 35.7333 214.74 36.4 215.273 36.96C215.833 37.52 216.5 37.96 217.273 38.28C218.073 38.5733 218.953 38.72 219.913 38.72C221.3 38.72 222.5 38.4 223.513 37.76C224.526 37.12 225.3 36.24 225.833 35.12L228.193 36.72C227.58 38.1067 226.553 39.2533 225.113 40.16C223.7 41.04 221.966 41.48 219.913 41.48ZM219.713 22.52C218.833 22.52 218.02 22.68 217.273 23C216.526 23.32 215.873 23.76 215.313 24.32C214.78 24.88 214.353 25.5467 214.033 26.32C213.74 27.0667 213.593 27.8933 213.593 28.8V29.08H225.433V28.64C225.433 27.7333 225.286 26.9067 224.993 26.16C224.726 25.4133 224.34 24.7733 223.833 24.24C223.353 23.68 222.753 23.2533 222.033 22.96C221.34 22.6667 220.566 22.52 219.713 22.52Z" fill="black"/>
<path d="M142.169 20.36H145.369V23.72H145.529C146.862 21.16 148.982 19.88 151.889 19.88C154.422 19.88 156.395 20.8267 157.809 22.72C159.249 24.6133 159.969 27.2667 159.969 30.68C159.969 34.0933 159.249 36.7467 157.809 38.64C156.395 40.5333 154.422 41.48 151.889 41.48C148.982 41.48 146.862 40.2 145.529 37.64H145.369V49H142.169V20.36ZM150.649 38.64C152.515 38.64 153.955 38.08 154.969 36.96C156.009 35.8133 156.529 34.3067 156.529 32.44V28.92C156.529 27.0533 156.009 25.56 154.969 24.44C153.955 23.2933 152.515 22.72 150.649 22.72C149.929 22.72 149.249 22.8133 148.609 23C147.969 23.1867 147.409 23.4667 146.929 23.84C146.449 24.1867 146.062 24.6267 145.769 25.16C145.502 25.6667 145.369 26.2667 145.369 26.96V34.4C145.369 35.0933 145.502 35.7067 145.769 36.24C146.062 36.7467 146.449 37.1867 146.929 37.56C147.409 37.9067 147.969 38.1733 148.609 38.36C149.249 38.5467 149.929 38.64 150.649 38.64Z" fill="#EF0B0B"/>
<path d="M77.9318 92.4545C75.9621 92.4545 74.2339 91.9858 72.7472 91.0483C71.2699 90.1108 70.1146 88.7992 69.2812 87.1136C68.4574 85.428 68.0455 83.4583 68.0455 81.2045C68.0455 78.9318 68.4574 76.9479 69.2812 75.2528C70.1146 73.5578 71.2699 72.2415 72.7472 71.304C74.2339 70.3665 75.9621 69.8977 77.9318 69.8977C79.9015 69.8977 81.625 70.3665 83.1023 71.304C84.589 72.2415 85.7443 73.5578 86.5682 75.2528C87.4015 76.9479 87.8182 78.9318 87.8182 81.2045C87.8182 83.4583 87.4015 85.428 86.5682 87.1136C85.7443 88.7992 84.589 90.1108 83.1023 91.0483C81.625 91.9858 79.9015 92.4545 77.9318 92.4545ZM77.9318 89.4432C79.428 89.4432 80.6591 89.0597 81.625 88.2926C82.5909 87.5256 83.3059 86.517 83.7699 85.267C84.2339 84.017 84.4659 82.6629 84.4659 81.2045C84.4659 79.7462 84.2339 78.3873 83.7699 77.1278C83.3059 75.8684 82.5909 74.8504 81.625 74.0739C80.6591 73.2973 79.428 72.9091 77.9318 72.9091C76.4356 72.9091 75.2045 73.2973 74.2386 74.0739C73.2727 74.8504 72.5578 75.8684 72.0938 77.1278C71.6297 78.3873 71.3977 79.7462 71.3977 81.2045C71.3977 82.6629 71.6297 84.017 72.0938 85.267C72.5578 86.517 73.2727 87.5256 74.2386 88.2926C75.2045 89.0597 76.4356 89.4432 77.9318 89.4432Z" fill="#100BEC"/>
<path d="M82.8182 131.08V118.182H86.1705V140H82.8182V136.307H82.5909C82.0795 137.415 81.2841 138.357 80.2045 139.134C79.125 139.901 77.7614 140.284 76.1136 140.284C74.75 140.284 73.5379 139.986 72.4773 139.389C71.4167 138.783 70.5833 137.874 69.9773 136.662C69.3712 135.44 69.0682 133.902 69.0682 132.045V118.182H72.4205V131.818C72.4205 133.409 72.8655 134.678 73.7557 135.625C74.6553 136.572 75.8011 137.045 77.1932 137.045C78.0265 137.045 78.8741 136.832 79.7358 136.406C80.607 135.98 81.3362 135.327 81.9233 134.446C82.5199 133.565 82.8182 132.443 82.8182 131.08ZM69.0682 188V166.182H72.3068V169.477H72.5341C72.9318 168.398 73.6515 167.522 74.6932 166.849C75.7348 166.177 76.9091 165.841 78.2159 165.841C78.4621 165.841 78.7699 165.846 79.1392 165.855C79.5085 165.865 79.7879 165.879 79.9773 165.898V169.307C79.8636 169.278 79.6032 169.236 79.196 169.179C78.7983 169.113 78.3769 169.08 77.9318 169.08C76.8712 169.08 75.9242 169.302 75.0909 169.747C74.267 170.183 73.6136 170.789 73.1307 171.565C72.6572 172.332 72.4205 173.208 72.4205 174.193V188H69.0682Z" fill="black"/>
<path d="M17 154.64H16.84C15.5067 157.2 13.3867 158.48 10.48 158.48C7.94667 158.48 5.96 157.533 4.52 155.64C3.10667 153.747 2.4 151.093 2.4 147.68C2.4 144.267 3.10667 141.613 4.52 139.72C5.96 137.827 7.94667 136.88 10.48 136.88C13.3867 136.88 15.5067 138.16 16.84 140.72H17V137.36H20.2V166H17V154.64ZM11.72 155.64C12.44 155.64 13.12 155.547 13.76 155.36C14.4 155.173 14.96 154.907 15.44 154.56C15.92 154.187 16.2933 153.747 16.56 153.24C16.8533 152.707 17 152.093 17 151.4V143.96C17 143.267 16.8533 142.667 16.56 142.16C16.2933 141.627 15.92 141.187 15.44 140.84C14.96 140.467 14.4 140.187 13.76 140C13.12 139.813 12.44 139.72 11.72 139.72C9.85333 139.72 8.4 140.293 7.36 141.44C6.34667 142.56 5.84 144.053 5.84 145.92V149.44C5.84 151.307 6.34667 152.813 7.36 153.96C8.4 155.08 9.85333 155.64 11.72 155.64Z" fill="black"/>
<path d="M136.36 132.48C134.867 132.48 133.52 132.227 132.32 131.72C131.147 131.213 130.133 130.493 129.28 129.56C128.453 128.6 127.813 127.467 127.36 126.16C126.907 124.827 126.68 123.347 126.68 121.72C126.68 120.067 126.907 118.573 127.36 117.24C127.84 115.907 128.493 114.773 129.32 113.84C130.147 112.88 131.133 112.147 132.28 111.64C133.453 111.133 134.747 110.88 136.16 110.88C137.547 110.88 138.8 111.133 139.92 111.64C141.067 112.147 142.04 112.853 142.84 113.76C143.64 114.64 144.253 115.693 144.68 116.92C145.107 118.147 145.32 119.493 145.32 120.96V122.48H130.04V123.44C130.04 124.347 130.187 125.187 130.48 125.96C130.773 126.733 131.187 127.4 131.72 127.96C132.28 128.52 132.947 128.96 133.72 129.28C134.52 129.573 135.4 129.72 136.36 129.72C137.747 129.72 138.947 129.4 139.96 128.76C140.973 128.12 141.747 127.24 142.28 126.12L144.64 127.72C144.027 129.107 143 130.253 141.56 131.16C140.147 132.04 138.413 132.48 136.36 132.48ZM136.16 113.52C135.28 113.52 134.467 113.68 133.72 114C132.973 114.32 132.32 114.76 131.76 115.32C131.227 115.88 130.8 116.547 130.48 117.32C130.187 118.067 130.04 118.893 130.04 119.8V120.08H141.88V119.64C141.88 118.733 141.733 117.907 141.44 117.16C141.173 116.413 140.787 115.773 140.28 115.24C139.8 114.68 139.2 114.253 138.48 113.96C137.787 113.667 137.013 113.52 136.16 113.52ZM286.033 106.8C285.1 106.8 284.446 106.613 284.073 106.24C283.7 105.84 283.513 105.347 283.513 104.76V104.12C283.513 103.533 283.7 103.053 284.073 102.68C284.446 102.28 285.1 102.08 286.033 102.08C286.966 102.08 287.62 102.28 287.993 102.68C288.366 103.053 288.553 103.533 288.553 104.12V104.76C288.553 105.347 288.366 105.84 287.993 106.24C287.62 106.613 286.966 106.8 286.033 106.8ZM276.993 129.28H284.433V114.08H276.993V111.36H287.633V129.28H294.593V132H276.993V129.28ZM334.337 132.48C332.897 132.48 331.591 132.227 330.417 131.72C329.271 131.213 328.284 130.493 327.457 129.56C326.657 128.6 326.044 127.467 325.617 126.16C325.191 124.827 324.977 123.333 324.977 121.68C324.977 120.053 325.191 118.573 325.617 117.24C326.044 115.907 326.657 114.773 327.457 113.84C328.284 112.88 329.271 112.147 330.417 111.64C331.591 111.133 332.897 110.88 334.337 110.88C335.777 110.88 337.071 111.133 338.217 111.64C339.391 112.147 340.377 112.88 341.177 113.84C342.004 114.773 342.631 115.907 343.057 117.24C343.484 118.573 343.697 120.053 343.697 121.68C343.697 123.333 343.484 124.827 343.057 126.16C342.631 127.467 342.004 128.6 341.177 129.56C340.377 130.493 339.391 131.213 338.217 131.72C337.071 132.227 335.777 132.48 334.337 132.48ZM334.337 129.72C336.124 129.72 337.564 129.187 338.657 128.12C339.751 127.053 340.297 125.4 340.297 123.16V120.2C340.297 117.96 339.751 116.307 338.657 115.24C337.564 114.173 336.124 113.64 334.337 113.64C332.551 113.64 331.111 114.173 330.017 115.24C328.924 116.307 328.377 117.96 328.377 120.2V123.16C328.377 125.4 328.924 127.053 330.017 128.12C331.111 129.187 332.551 129.72 334.337 129.72ZM375.842 132V111.36H379.042V114.72H379.202C379.415 114.213 379.682 113.733 380.002 113.28C380.322 112.8 380.709 112.387 381.162 112.04C381.642 111.693 382.202 111.413 382.842 111.2C383.482 110.987 384.229 110.88 385.082 110.88C387.242 110.88 388.975 111.573 390.282 112.96C391.589 114.32 392.242 116.253 392.242 118.76V132H389.042V119.32C389.042 117.427 388.629 116.027 387.802 115.12C386.975 114.187 385.762 113.72 384.162 113.72C383.522 113.72 382.895 113.8 382.282 113.96C381.669 114.12 381.122 114.36 380.642 114.68C380.162 115 379.775 115.413 379.482 115.92C379.189 116.427 379.042 117.013 379.042 117.68V132H375.842Z" fill="black"/>
<path d="M185.824 132.48C183.664 132.48 181.798 132.12 180.224 131.4C178.678 130.653 177.358 129.667 176.264 128.44L178.424 126.56C179.411 127.6 180.491 128.4 181.664 128.96C182.838 129.52 184.251 129.8 185.904 129.8C187.504 129.8 188.811 129.52 189.824 128.96C190.864 128.373 191.384 127.467 191.384 126.24C191.384 125.707 191.278 125.267 191.064 124.92C190.878 124.547 190.611 124.253 190.264 124.04C189.918 123.827 189.531 123.667 189.104 123.56C188.678 123.427 188.224 123.32 187.744 123.24L184.504 122.76C183.784 122.653 182.998 122.507 182.144 122.32C181.318 122.133 180.558 121.84 179.864 121.44C179.171 121.013 178.584 120.453 178.104 119.76C177.651 119.067 177.424 118.16 177.424 117.04C177.424 116 177.624 115.107 178.024 114.36C178.451 113.587 179.038 112.947 179.784 112.44C180.531 111.907 181.411 111.52 182.424 111.28C183.438 111.013 184.544 110.88 185.744 110.88C187.611 110.88 189.224 111.173 190.584 111.76C191.971 112.347 193.158 113.16 194.144 114.2L192.064 116.16C191.824 115.867 191.518 115.573 191.144 115.28C190.798 114.96 190.358 114.68 189.824 114.44C189.318 114.173 188.718 113.96 188.024 113.8C187.331 113.64 186.531 113.56 185.624 113.56C183.998 113.56 182.744 113.84 181.864 114.4C181.011 114.96 180.584 115.773 180.584 116.84C180.584 117.373 180.678 117.827 180.864 118.2C181.078 118.547 181.358 118.827 181.704 119.04C182.051 119.253 182.438 119.427 182.864 119.56C183.318 119.667 183.771 119.76 184.224 119.84L187.464 120.32C188.211 120.427 188.998 120.573 189.824 120.76C190.651 120.947 191.411 121.253 192.104 121.68C192.798 122.08 193.371 122.627 193.824 123.32C194.304 124.013 194.544 124.92 194.544 126.04C194.544 128.093 193.744 129.68 192.144 130.8C190.571 131.92 188.464 132.48 185.824 132.48Z" fill="#44A417"/>
<path d="M236.169 132C234.595 132 233.435 131.56 232.689 130.68C231.969 129.8 231.609 128.667 231.609 127.28V114.08H224.729V111.36H229.849C230.542 111.36 231.022 111.227 231.289 110.96C231.582 110.667 231.729 110.173 231.729 109.48V104.08H234.809V111.36H244.209V114.08H234.809V129.28H244.209V132H236.169Z" fill="#F0B00C"/>
</svg>
