<svg width="148" height="132" viewBox="0 0 148 132" fill="none" xmlns="http://www.w3.org/2000/svg">
<path d="M53.4237 55.3643C46.503 55.3643 28.8575 52.2493 23.8641 58.3523C18.3397 65.1043 26.322 69.4859 31.8676 70.3041C37.1885 71.0892 43.3396 71.1633 48.5149 69.5572C52.262 68.3943 60.1228 61.1584 52.2499 65.5021C44.0124 70.0469 29.9154 99.2271 39.1241 107.12C45.7596 112.808 57.3987 107.337 63.0279 102.958C67.1644 99.7412 70.0793 86.9794 73.9127 90.0461C83.7262 97.897 102.237 94.715 110.622 86.5246C112.291 84.8949 118.963 74.8295 112.543 74.5727C103.186 74.1984 116.502 71.1579 120.44 66.7826C127.721 58.692 129.029 46.1384 118.305 41.4915C115.761 40.3891 93.9748 33.72 93.9748 40.8513C93.9748 45.9269 97.2033 30.468 95.4688 25.698C92.5259 17.605 75.2569 24.7806 71.565 28.4725C65.6549 34.3826 69.1796 38.9869 59.8265 37.1163C47.1533 34.5816 32.9229 37.9813 27.3857 51.0957C24.6615 57.5477 26.072 62.8943 32.2945 64.9685" stroke="#F0B00C" stroke-width="43" stroke-linecap="round"/>
<ellipse cx="74" cy="59.5" rx="40" ry="37.5" fill="#EF0B0B"/>
</svg>
